<svg xmlns="http://www.w3.org/2000/svg" viewBox="0 0 800 600" role="img" aria-label="Duct area — pigeon net installation">
  <rect width="800" height="600" fill="#F4F6F8"/>
  
  <rect x="330" y="60" width="140" height="440" fill="#8A9099" opacity="0.25"/>
  <rect x="330" y="60" width="140" height="440" fill="none" stroke="#1B2A56" stroke-width="3"/>
  <rect x="330" y="130" width="140" height="60" fill="none" stroke="#1B2A56" stroke-width="2"/><clipPath id="clip-mesh"><rect x="330" y="130" width="140" height="60"/></clipPath><g clip-path="url(#clip-mesh)"><line x1="270" y1="130" x2="330" y2="190" stroke="#1B2A56" stroke-width="1.5" opacity="0.85"/><line x1="270" y1="190" x2="330" y2="130" stroke="#1B2A56" stroke-width="1.5" opacity="0.85"/><line x1="286" y1="130" x2="346" y2="190" stroke="#1B2A56" stroke-width="1.5" opacity="0.85"/><line x1="286" y1="190" x2="346" y2="130" stroke="#1B2A56" stroke-width="1.5" opacity="0.85"/><line x1="302" y1="130" x2="362" y2="190" stroke="#1B2A56" stroke-width="1.5" opacity="0.85"/><line x1="302" y1="190" x2="362" y2="130" stroke="#1B2A56" stroke-width="1.5" opacity="0.85"/><line x1="318" y1="130" x2="378" y2="190" stroke="#1B2A56" stroke-width="1.5" opacity="0.85"/><line x1="318" y1="190" x2="378" y2="130" stroke="#1B2A56" stroke-width="1.5" opacity="0.85"/><line x1="334" y1="130" x2="394" y2="190" stroke="#1B2A56" stroke-width="1.5" opacity="0.85"/><line x1="334" y1="190" x2="394" y2="130" stroke="#1B2A56" stroke-width="1.5" opacity="0.85"/><line x1="350" y1="130" x2="410" y2="190" stroke="#1B2A56" stroke-width="1.5" opacity="0.85"/><line x1="350" y1="190" x2="410" y2="130" stroke="#1B2A56" stroke-width="1.5" opacity="0.85"/><line x1="366" y1="130" x2="426" y2="190" stroke="#1B2A56" stroke-width="1.5" opacity="0.85"/><line x1="366" y1="190" x2="426" y2="130" stroke="#1B2A56" stroke-width="1.5" opacity="0.85"/><line x1="382" y1="130" x2="442" y2="190" stroke="#1B2A56" stroke-width="1.5" opacity="0.85"/><line x1="382" y1="190" x2="442" y2="130" stroke="#1B2A56" stroke-width="1.5" opacity="0.85"/><line x1="398" y1="130" x2="458" y2="190" stroke="#1B2A56" stroke-width="1.5" opacity="0.85"/><line x1="398" y1="190" x2="458" y2="130" stroke="#1B2A56" stroke-width="1.5" opacity="0.85"/><line x1="414" y1="130" x2="474" y2="190" stroke="#1B2A56" stroke-width="1.5" opacity="0.85"/><line x1="414" y1="190" x2="474" y2="130" stroke="#1B2A56" stroke-width="1.5" opacity="0.85"/><line x1="430" y1="130" x2="490" y2="190" stroke="#1B2A56" stroke-width="1.5" opacity="0.85"/><line x1="430" y1="190" x2="490" y2="130" stroke="#1B2A56" stroke-width="1.5" opacity="0.85"/><line x1="446" y1="130" x2="506" y2="190" stroke="#1B2A56" stroke-width="1.5" opacity="0.85"/><line x1="446" y1="190" x2="506" y2="130" stroke="#1B2A56" stroke-width="1.5" opacity="0.85"/><line x1="462" y1="130" x2="522" y2="190" stroke="#1B2A56" stroke-width="1.5" opacity="0.85"/><line x1="462" y1="190" x2="522" y2="130" stroke="#1B2A56" stroke-width="1.5" opacity="0.85"/><line x1="478" y1="130" x2="538" y2="190" stroke="#1B2A56" stroke-width="1.5" opacity="0.85"/><line x1="478" y1="190" x2="538" y2="130" stroke="#1B2A56" stroke-width="1.5" opacity="0.85"/><line x1="494" y1="130" x2="554" y2="190" stroke="#1B2A56" stroke-width="1.5" opacity="0.85"/><line x1="494" y1="190" x2="554" y2="130" stroke="#1B2A56" stroke-width="1.5" opacity="0.85"/><line x1="510" y1="130" x2="570" y2="190" stroke="#1B2A56" stroke-width="1.5" opacity="0.85"/><line x1="510" y1="190" x2="570" y2="130" stroke="#1B2A56" stroke-width="1.5" opacity="0.85"/><line x1="526" y1="130" x2="586" y2="190" stroke="#1B2A56" stroke-width="1.5" opacity="0.85"/><line x1="526" y1="190" x2="586" y2="130" stroke="#1B2A56" stroke-width="1.5" opacity="0.85"/></g><rect x="330" y="130" width="140" height="60" fill="none" stroke="#1B2A56" stroke-width="3"/><rect x="330" y="230" width="140" height="60" fill="none" stroke="#1B2A56" stroke-width="2"/><clipPath id="clip-mesh"><rect x="330" y="230" width="140" height="60"/></clipPath><g clip-path="url(#clip-mesh)"><line x1="270" y1="230" x2="330" y2="290" stroke="#1B2A56" stroke-width="1.5" opacity="0.85"/><line x1="270" y1="290" x2="330" y2="230" stroke="#1B2A56" stroke-width="1.5" opacity="0.85"/><line x1="286" y1="230" x2="346" y2="290" stroke="#1B2A56" stroke-width="1.5" opacity="0.85"/><line x1="286" y1="290" x2="346" y2="230" stroke="#1B2A56" stroke-width="1.5" opacity="0.85"/><line x1="302" y1="230" x2="362" y2="290" stroke="#1B2A56" stroke-width="1.5" opacity="0.85"/><line x1="302" y1="290" x2="362" y2="230" stroke="#1B2A56" stroke-width="1.5" opacity="0.85"/><line x1="318" y1="230" x2="378" y2="290" stroke="#1B2A56" stroke-width="1.5" opacity="0.85"/><line x1="318" y1="290" x2="378" y2="230" stroke="#1B2A56" stroke-width="1.5" opacity="0.85"/><line x1="334" y1="230" x2="394" y2="290" stroke="#1B2A56" stroke-width="1.5" opacity="0.85"/><line x1="334" y1="290" x2="394" y2="230" stroke="#1B2A56" stroke-width="1.5" opacity="0.85"/><line x1="350" y1="230" x2="410" y2="290" stroke="#1B2A56" stroke-width="1.5" opacity="0.85"/><line x1="350" y1="290" x2="410" y2="230" stroke="#1B2A56" stroke-width="1.5" opacity="0.85"/><line x1="366" y1="230" x2="426" y2="290" stroke="#1B2A56" stroke-width="1.5" opacity="0.85"/><line x1="366" y1="290" x2="426" y2="230" stroke="#1B2A56" stroke-width="1.5" opacity="0.85"/><line x1="382" y1="230" x2="442" y2="290" stroke="#1B2A56" stroke-width="1.5" opacity="0.85"/><line x1="382" y1="290" x2="442" y2="230" stroke="#1B2A56" stroke-width="1.5" opacity="0.85"/><line x1="398" y1="230" x2="458" y2="290" stroke="#1B2A56" stroke-width="1.5" opacity="0.85"/><line x1="398" y1="290" x2="458" y2="230" stroke="#1B2A56" stroke-width="1.5" opacity="0.85"/><line x1="414" y1="230" x2="474" y2="290" stroke="#1B2A56" stroke-width="1.5" opacity="0.85"/><line x1="414" y1="290" x2="474" y2="230" stroke="#1B2A56" stroke-width="1.5" opacity="0.85"/><line x1="430" y1="230" x2="490" y2="290" stroke="#1B2A56" stroke-width="1.5" opacity="0.85"/><line x1="430" y1="290" x2="490" y2="230" stroke="#1B2A56" stroke-width="1.5" opacity="0.85"/><line x1="446" y1="230" x2="506" y2="290" stroke="#1B2A56" stroke-width="1.5" opacity="0.85"/><line x1="446" y1="290" x2="506" y2="230" stroke="#1B2A56" stroke-width="1.5" opacity="0.85"/><line x1="462" y1="230" x2="522" y2="290" stroke="#1B2A56" stroke-width="1.5" opacity="0.85"/><line x1="462" y1="290" x2="522" y2="230" stroke="#1B2A56" stroke-width="1.5" opacity="0.85"/><line x1="478" y1="230" x2="538" y2="290" stroke="#1B2A56" stroke-width="1.5" opacity="0.85"/><line x1="478" y1="290" x2="538" y2="230" stroke="#1B2A56" stroke-width="1.5" opacity="0.85"/><line x1="494" y1="230" x2="554" y2="290" stroke="#1B2A56" stroke-width="1.5" opacity="0.85"/><line x1="494" y1="290" x2="554" y2="230" stroke="#1B2A56" stroke-width="1.5" opacity="0.85"/><line x1="510" y1="230" x2="570" y2="290" stroke="#1B2A56" stroke-width="1.5" opacity="0.85"/><line x1="510" y1="290" x2="570" y2="230" stroke="#1B2A56" stroke-width="1.5" opacity="0.85"/><line x1="526" y1="230" x2="586" y2="290" stroke="#1B2A56" stroke-width="1.5" opacity="0.85"/><line x1="526" y1="290" x2="586" y2="230" stroke="#1B2A56" stroke-width="1.5" opacity="0.85"/></g><rect x="330" y="230" width="140" height="60" fill="none" stroke="#1B2A56" stroke-width="3"/><rect x="330" y="330" width="140" height="60" fill="none" stroke="#1B2A56" stroke-width="2"/><clipPath id="clip-mesh"><rect x="330" y="330" width="140" height="60"/></clipPath><g clip-path="url(#clip-mesh)"><line x1="270" y1="330" x2="330" y2="390" stroke="#1B2A56" stroke-width="1.5" opacity="0.85"/><line x1="270" y1="390" x2="330" y2="330" stroke="#1B2A56" stroke-width="1.5" opacity="0.85"/><line x1="286" y1="330" x2="346" y2="390" stroke="#1B2A56" stroke-width="1.5" opacity="0.85"/><line x1="286" y1="390" x2="346" y2="330" stroke="#1B2A56" stroke-width="1.5" opacity="0.85"/><line x1="302" y1="330" x2="362" y2="390" stroke="#1B2A56" stroke-width="1.5" opacity="0.85"/><line x1="302" y1="390" x2="362" y2="330" stroke="#1B2A56" stroke-width="1.5" opacity="0.85"/><line x1="318" y1="330" x2="378" y2="390" stroke="#1B2A56" stroke-width="1.5" opacity="0.85"/><line x1="318" y1="390" x2="378" y2="330" stroke="#1B2A56" stroke-width="1.5" opacity="0.85"/><line x1="334" y1="330" x2="394" y2="390" stroke="#1B2A56" stroke-width="1.5" opacity="0.85"/><line x1="334" y1="390" x2="394" y2="330" stroke="#1B2A56" stroke-width="1.5" opacity="0.85"/><line x1="350" y1="330" x2="410" y2="390" stroke="#1B2A56" stroke-width="1.5" opacity="0.85"/><line x1="350" y1="390" x2="410" y2="330" stroke="#1B2A56" stroke-width="1.5" opacity="0.85"/><line x1="366" y1="330" x2="426" y2="390" stroke="#1B2A56" stroke-width="1.5" opacity="0.85"/><line x1="366" y1="390" x2="426" y2="330" stroke="#1B2A56" stroke-width="1.5" opacity="0.85"/><line x1="382" y1="330" x2="442" y2="390" stroke="#1B2A56" stroke-width="1.5" opacity="0.85"/><line x1="382" y1="390" x2="442" y2="330" stroke="#1B2A56" stroke-width="1.5" opacity="0.85"/><line x1="398" y1="330" x2="458" y2="390" stroke="#1B2A56" stroke-width="1.5" opacity="0.85"/><line x1="398" y1="390" x2="458" y2="330" stroke="#1B2A56" stroke-width="1.5" opacity="0.85"/><line x1="414" y1="330" x2="474" y2="390" stroke="#1B2A56" stroke-width="1.5" opacity="0.85"/><line x1="414" y1="390" x2="474" y2="330" stroke="#1B2A56" stroke-width="1.5" opacity="0.85"/><line x1="430" y1="330" x2="490" y2="390" stroke="#1B2A56" stroke-width="1.5" opacity="0.85"/><line x1="430" y1="390" x2="490" y2="330" stroke="#1B2A56" stroke-width="1.5" opacity="0.85"/><line x1="446" y1="330" x2="506" y2="390" stroke="#1B2A56" stroke-width="1.5" opacity="0.85"/><line x1="446" y1="390" x2="506" y2="330" stroke="#1B2A56" stroke-width="1.5" opacity="0.85"/><line x1="462" y1="330" x2="522" y2="390" stroke="#1B2A56" stroke-width="1.5" opacity="0.85"/><line x1="462" y1="390" x2="522" y2="330" stroke="#1B2A56" stroke-width="1.5" opacity="0.85"/><line x1="478" y1="330" x2="538" y2="390" stroke="#1B2A56" stroke-width="1.5" opacity="0.85"/><line x1="478" y1="390" x2="538" y2="330" stroke="#1B2A56" stroke-width="1.5" opacity="0.85"/><line x1="494" y1="330" x2="554" y2="390" stroke="#1B2A56" stroke-width="1.5" opacity="0.85"/><line x1="494" y1="390" x2="554" y2="330" stroke="#1B2A56" stroke-width="1.5" opacity="0.85"/><line x1="510" y1="330" x2="570" y2="390" stroke="#1B2A56" stroke-width="1.5" opacity="0.85"/><line x1="510" y1="390" x2="570" y2="330" stroke="#1B2A56" stroke-width="1.5" opacity="0.85"/><line x1="526" y1="330" x2="586" y2="390" stroke="#1B2A56" stroke-width="1.5" opacity="0.85"/><line x1="526" y1="390" x2="586" y2="330" stroke="#1B2A56" stroke-width="1.5" opacity="0.85"/></g><rect x="330" y="330" width="140" height="60" fill="none" stroke="#1B2A56" stroke-width="3"/>
  <line x1="330" y1="500" x2="470" y2="500" stroke="#F47B20" stroke-width="6"/>
  
  <text x="40" y="566" font-family="Arial, sans-serif" font-size="15" letter-spacing="2" fill="#8A9099">DUCT AREA — PIGEON NET INSTALLATION</text>
  <line x1="40" y1="548" x2="760" y2="548" stroke="#8A9099" stroke-width="1" opacity="0.4"/>
</svg>